<svg width="1127" height="649" viewBox="0 0 1127 649" fill="none" xmlns="http://www.w3.org/2000/svg">
<path d="M561.201 161.965L444.31 229.578L283.73 136.867L283.84 1.83034L561.201 161.965Z" fill="#0044AB" fill-opacity="0.5" stroke="black"/>
<path d="M562.5 485.135L445.5 417.711V232.289L562.5 164.865V485.135Z" fill="#0044AB" fill-opacity="0.5" stroke="black"/>
<path d="M280.444 2.05996L280.553 137.097L119.973 229.808L3.08195 162.195L280.444 2.05996Z" fill="#0044AB" fill-opacity="0.5" stroke="black"/>
<path d="M2.91895 487.914L119.81 420.301L280.39 513.012L280.281 648.048L2.91895 487.914Z" fill="#0044AB" fill-opacity="0.5" stroke="black"/>
<path d="M1.35059 164.926L118.351 232.349L118.351 417.771L1.35059 485.195L1.35059 164.926Z" fill="#0044AB" fill-opacity="0.5" stroke="black"/>
<path d="M1125.35 162L1008.46 229.613L847.88 136.902L847.989 1.86562L1125.35 162Z" fill="#0044AB" fill-opacity="0.5" stroke="black"/>
<path d="M844.593 2.09522L844.702 137.132L684.122 229.843L567.231 162.23L844.593 2.09522Z" fill="#0044AB" fill-opacity="0.5" stroke="black"/>
<path d="M565.5 164.961L682.5 232.385L682.5 417.807L565.5 485.23L565.5 164.961Z" fill="#0044AB" fill-opacity="0.5" stroke="black"/>
</svg>
